<svg xmlns="http://www.w3.org/2000/svg" xmlns:xlink="http://www.w3.org/1999/xlink" width="24" height="24" viewBox="0 0 24 24">
    <defs>
        <path id="prefix__a" d="M5 5h14c1.054 0 1.918.816 1.995 1.85L21 7v10c0 1.054-.816 1.918-1.85 1.995L19 19H5c-1.054 0-1.918-.816-1.995-1.85L3 17V7c0-1.054.816-1.918 1.85-1.995L5 5h14zm13.964 1.5H5.036c-.296 0-.536.246-.536.55v9.9c0 .304.24.55.536.55h13.928c.296 0 .536-.246.536-.55v-9.9c0-.304-.24-.55-.536-.55zM15.36 9.616c.462-.32 1.102-.143 1.333.369.178.395.05.862-.307 1.11l-1.388.961 1.322.82c.375.232.529.701.364 1.11-.211.523-.842.73-1.32.433l-1.992-1.234-1.371.961-1.261-.885-2.106 1.205c-.489.28-1.112.054-1.31-.474-.155-.42.015-.89.403-1.112l1.35-.772-1.46-1.014c-.357-.247-.486-.714-.308-1.109.231-.512.87-.69 1.333-.369L12 11.946z"/>
    </defs>
    <g fill="none" fill-rule="evenodd">
        <use fill="#8392A6" xlink:href="#prefix__a"/>
    </g>
</svg>
